<?xml version="1.0" encoding="iso-8859-1"?>
<!-- Uploaded to: SVG Repo, www.svgrepo.com, Generator: SVG Repo Mixer Tools -->
<!DOCTYPE svg PUBLIC "-//W3C//DTD SVG 1.1//EN" "http://www.w3.org/Graphics/SVG/1.1/DTD/svg11.dtd">
<svg fill="#000000" version="1.1" id="Capa_1" xmlns="http://www.w3.org/2000/svg" xmlns:xlink="http://www.w3.org/1999/xlink" 
	 width="800px" height="800px" viewBox="0 0 81.754 81.754"
	 xml:space="preserve">
<g>
	<path d="M67.739,0H14.015C6.308,0,0,6.308,0,14.016v53.724c0,7.708,6.308,14.015,14.015,14.015h53.724
		c7.707,0,14.015-6.307,14.015-14.015V14.016C81.754,6.308,75.446,0,67.739,0z M34.213,65.823c-1.444,2.107-3.824,3.369-6.37,3.373
		h-0.021c-2.351,0-4.284-0.796-5.748-2.36c-1.928-2.062-2.883-5.449-2.625-9.293c0.058-0.854,0.056-1.675,0.034-2.486
		c0.47-0.073,0.956-0.144,1.439-0.215c0.025,0.908,0.022,1.834-0.044,2.799c-0.234,3.447,0.583,6.439,2.242,8.214
		c1.179,1.265,2.761,1.905,4.7,1.905v0.719l0.016-0.719c2.073-0.005,4.013-1.033,5.188-2.751c1.403-2.049,1.587-4.834,0.502-7.64
		c-0.533-1.373-0.885-2.56-1.079-3.649c0.475-0.027,0.959-0.05,1.445-0.068c0.187,0.949,0.503,1.984,0.972,3.198
		C36.128,60.111,35.891,63.378,34.213,65.823z M22.933,28.474L22.933,28.474c0.74,0,1.408-0.533,1.88-1.498
		c0.633-1.296,1.591-1.296,2.222,0c0.471,0.965,1.139,1.498,1.879,1.498c0.738,0,1.406-0.533,1.881-1.498
		c0.633-1.296,1.587-1.296,2.221,0c0.236,0.483,0.523,0.855,0.841,1.112c0.294,0.778,0.544,1.616,0.747,2.509
		c-0.294-0.12-0.582-0.423-0.82-0.909c-0.471-0.969-1.14-1.502-1.879-1.502c-0.742,0-1.411,0.533-1.881,1.502
		c-0.633,1.294-1.589,1.294-2.222,0c-0.471-0.969-1.14-1.502-1.88-1.502c-0.741,0-1.411,0.533-1.881,1.502
		c-0.314,0.645-0.719,1.017-1.112,1.017l0,0c-0.39,0-0.794-0.37-1.11-1.017c-0.114-0.238-0.243-0.441-0.377-0.626
		c0.143-0.334,0.294-0.656,0.453-0.972C22.217,28.343,22.564,28.474,22.933,28.474z M22.319,27.317
		c0.424-0.735,0.883-1.436,1.411-2.053c1.497-1.757,3.212-2.719,4.824-2.719l0.236,0.008c1.217,0.07,2.492,1.046,3.589,2.635
		c-0.156-0.049-0.31-0.084-0.473-0.084c-0.742,0-1.411,0.533-1.881,1.498c-0.633,1.293-1.589,1.293-2.222,0
		c-0.471-0.965-1.14-1.498-1.88-1.498c-0.741,0-1.411,0.533-1.881,1.498c-0.314,0.647-0.719,1.019-1.112,1.019l0,0
		C22.726,27.617,22.518,27.509,22.319,27.317z M22.933,31.562L22.933,31.562c0.74,0,1.408-0.533,1.88-1.5
		c0.633-1.294,1.591-1.294,2.222,0c0.471,0.967,1.139,1.5,1.879,1.5c0.738,0,1.406-0.533,1.881-1.5c0.633-1.294,1.587-1.294,2.221,0
		c0.454,0.93,1.091,1.443,1.798,1.485c0.125,0.699,0.218,1.417,0.274,2.164c-0.46,0.119-0.934-0.18-1.301-0.932
		c-0.474-0.962-1.14-1.495-1.88-1.495c-0.741,0-1.409,0.533-1.881,1.495c-0.633,1.293-1.588,1.293-2.222,0
		c-0.473-0.962-1.139-1.495-1.879-1.495s-1.409,0.533-1.881,1.495c-0.315,0.647-0.72,1.02-1.112,1.02l0,0
		c-0.39-0.002-0.794-0.371-1.11-1.02c-0.322-0.654-0.733-1.091-1.195-1.316c0.129-0.474,0.264-0.941,0.428-1.396
		C21.524,31.03,22.193,31.562,22.933,31.562z M21.056,33.152c0.471,0.967,1.137,1.498,1.877,1.498l0,0c0.74,0,1.408-0.53,1.88-1.498
		c0.633-1.293,1.591-1.293,2.222,0c0.471,0.967,1.139,1.498,1.879,1.498c0.738,0,1.406-0.53,1.881-1.498
		c0.633-1.293,1.587-1.293,2.221,0c0.472,0.967,1.14,1.498,1.88,1.498c0.071,0,0.136-0.027,0.203-0.038
		c0.022,0.722,0.009,1.446-0.047,2.191c-0.448,0.098-0.91-0.203-1.268-0.941c-0.473-0.963-1.14-1.498-1.879-1.498
		c-0.742,0-1.409,0.535-1.881,1.498c-0.633,1.299-1.589,1.299-2.222,0c-0.474-0.963-1.14-1.498-1.88-1.498
		c-0.741,0-1.409,0.535-1.881,1.498c-0.314,0.649-0.719,1.023-1.112,1.023l0,0c-0.39,0-0.794-0.372-1.11-1.023
		c-0.453-0.923-1.083-1.434-1.786-1.481c0.091-0.698,0.206-1.38,0.355-2.042C20.632,32.494,20.862,32.753,21.056,33.152z
		 M21.056,36.243c0.471,0.965,1.137,1.5,1.877,1.5l0,0c0.74,0,1.411-0.535,1.88-1.5c0.633-1.294,1.591-1.294,2.222,0
		c0.471,0.965,1.139,1.5,1.879,1.5c0.738,0,1.409-0.535,1.881-1.5c0.633-1.294,1.587-1.294,2.221,0c0.47,0.965,1.14,1.5,1.88,1.5
		c0.024,0,0.044-0.013,0.069-0.013c-0.083,0.708-0.209,1.416-0.37,2.13c-0.292-0.123-0.573-0.425-0.809-0.909
		c-0.474-0.964-1.14-1.497-1.88-1.497c-0.741,0-1.409,0.533-1.881,1.497c-0.633,1.299-1.588,1.299-2.222,0
		c-0.473-0.964-1.139-1.497-1.879-1.497s-1.409,0.533-1.881,1.497c-0.315,0.647-0.72,1.024-1.112,1.024l0,0
		c-0.39,0-0.794-0.374-1.11-1.024c-0.473-0.964-1.14-1.497-1.879-1.497l0,0c-0.036,0-0.071,0.018-0.105,0.018
		c0.002-0.747,0.042-1.482,0.105-2.202C20.34,35.271,20.74,35.593,21.056,36.243z M31.906,59.075c-0.742,0-1.411,0.529-1.881,1.501
		c-0.633,1.291-1.589,1.291-2.222,0c-0.471-0.972-1.14-1.501-1.88-1.501c-0.741,0-1.411,0.529-1.881,1.501
		c-0.314,0.644-0.719,1.016-1.112,1.016l0,0c-0.21,0-0.425-0.121-0.628-0.322c-0.132-0.684-0.203-1.411-0.219-2.189
		c0.266,0.167,0.548,0.278,0.847,0.278l0,0c0.74,0,1.411-0.534,1.881-1.501c0.633-1.293,1.591-1.293,2.222,0
		c0.471,0.963,1.139,1.501,1.879,1.501c0.738,0,1.409-0.534,1.881-1.501c0.371-0.762,0.856-1.062,1.322-0.924
		c0.103,0.29,0.178,0.559,0.297,0.871c0.209,0.546,0.35,1.082,0.453,1.608C32.57,59.201,32.249,59.075,31.906,59.075z
		 M33.007,60.937c0,1.257-0.299,2.425-0.967,3.399c-0.969,1.414-2.499,2.224-4.204,2.229h-0.014c-1.614,0-2.866-0.497-3.826-1.523
		c-0.631-0.678-1.095-1.602-1.425-2.662c0.119,0.029,0.236,0.063,0.359,0.063l0,0c0.74,0,1.409-0.531,1.881-1.499
		c0.633-1.293,1.591-1.293,2.222,0c0.471,0.968,1.139,1.499,1.879,1.499c0.738,0,1.406-0.531,1.881-1.499
		C31.426,59.657,32.376,59.652,33.007,60.937z M22.933,56.27L22.933,56.27c0.74,0,1.408-0.533,1.88-1.498
		c0.087-0.174,0.181-0.322,0.274-0.447c0.511-0.057,0.995-0.123,1.518-0.171c0.152,0.155,0.296,0.354,0.43,0.62
		c0.471,0.963,1.139,1.499,1.879,1.499c0.738,0,1.406-0.536,1.881-1.499c0.154-0.319,0.334-0.557,0.516-0.721
		c0.117,0.616,0.283,1.269,0.491,1.952c-0.697,0.048-1.328,0.557-1.778,1.479c-0.633,1.298-1.589,1.298-2.222,0
		c-0.474-0.967-1.14-1.499-1.88-1.499c-0.741,0-1.409,0.532-1.881,1.499c-0.314,0.647-0.719,1.02-1.112,1.02l0,0
		c-0.292,0-0.588-0.21-0.854-0.581c0.002-0.069-0.002-0.128,0-0.194c0.039-0.6,0.023-1.147,0.028-1.718
		C22.366,56.165,22.641,56.27,22.933,56.27z M22.123,54.883c0-0.068,0.005-0.146,0.002-0.219c0.604-0.08,1.264-0.144,1.889-0.219
		c-0.31,0.611-0.7,0.967-1.081,0.967l0,0C22.658,55.412,22.377,55.221,22.123,54.883z M27.607,54.071
		c0.897-0.082,1.811-0.155,2.75-0.22c-0.118,0.162-0.232,0.34-0.332,0.543c-0.633,1.289-1.589,1.289-2.222,0
		C27.745,54.271,27.675,54.181,27.607,54.071z M20.766,45.216c-0.207-1.063-0.414-2.145-0.591-3.269
		c-0.024-0.156-0.033-0.309-0.051-0.463c0.335,0.082,0.665,0.383,0.932,0.931c0.471,0.967,1.137,1.501,1.877,1.501l0,0
		c0.74,0,1.411-0.534,1.88-1.501c0.633-1.291,1.591-1.291,2.222,0c0.471,0.967,1.139,1.501,1.879,1.501
		c0.738,0,1.409-0.534,1.881-1.501c0.633-1.291,1.587-1.291,2.221,0c0.155,0.314,0.336,0.57,0.53,0.786
		c-0.072,0.172-0.114,0.34-0.189,0.512c-0.062,0.139-0.109,0.255-0.17,0.39C28.973,44.304,24.792,44.678,20.766,45.216z
		 M31.906,40.543c-0.742,0-1.409,0.533-1.881,1.498c-0.633,1.295-1.589,1.295-2.222,0c-0.474-0.965-1.14-1.498-1.88-1.498
		c-0.741,0-1.409,0.533-1.881,1.498c-0.314,0.647-0.719,1.017-1.112,1.017l0,0c-0.39,0-0.794-0.369-1.11-1.017
		c-0.457-0.932-1.099-1.451-1.81-1.484c-0.079-0.735-0.13-1.464-0.151-2.181c0.428-0.049,0.857,0.261,1.194,0.95
		c0.471,0.967,1.137,1.5,1.877,1.5l0,0c0.74,0,1.411-0.533,1.881-1.498c0.633-1.293,1.591-1.293,2.222,0
		c0.471,0.965,1.139,1.498,1.879,1.498c0.738,0,1.409-0.533,1.881-1.498c0.633-1.293,1.588-1.293,2.221,0
		c0.363,0.738,0.842,1.217,1.379,1.407c-0.138,0.505-0.316,1.002-0.493,1.504c-0.038-0.066-0.078-0.123-0.115-0.198
		C33.314,41.076,32.646,40.543,31.906,40.543z M36.084,43.986c-0.528,0.019-1.054,0.039-1.58,0.057
		c3.104-7.043,1.81-14.745-0.731-18.948c-1.393-2.302-3.137-3.63-4.913-3.735c-0.1-0.007-0.203-0.012-0.306-0.012
		c-1.972,0-4.006,1.117-5.734,3.137c-3.497,4.097-4.928,10.696-3.829,17.649c0.178,1.12,0.383,2.192,0.586,3.246
		c-0.476,0.068-0.945,0.146-1.42,0.219c-0.203-1.054-0.406-2.121-0.584-3.241c-1.168-7.362,0.388-14.39,4.153-18.803
		c2.114-2.476,4.687-3.78,7.218-3.629c2.258,0.134,4.409,1.706,6.054,4.427C37.656,28.737,39.047,36.645,36.084,43.986z
		 M59.678,59.181c-1.465,1.567-3.399,2.363-5.748,2.363h-0.021c-2.544-0.007-4.925-1.269-6.371-3.376
		c-1.675-2.445-1.912-5.712-0.657-8.97c0.47-1.213,0.787-2.249,0.972-3.198c0.488,0.023,0.972,0.046,1.451,0.069
		c-0.196,1.09-0.553,2.276-1.082,3.649c-1.086,2.806-0.903,5.589,0.502,7.642c1.173,1.718,3.116,2.746,5.188,2.751l0.016,0.716
		v-0.716c1.939,0,3.518-0.644,4.701-1.907c1.656-1.772,2.476-4.765,2.24-8.216c-0.063-0.968-0.068-1.894-0.043-2.797
		c0.483,0.068,0.969,0.142,1.439,0.212c-0.023,0.814-0.023,1.634,0.034,2.488C62.561,53.733,61.605,57.118,59.678,59.181z
		 M50.959,19.32c0.47,0.967,1.137,1.5,1.88,1.5c0.744,0,1.41-0.533,1.88-1.498c0.634-1.297,1.587-1.297,2.222,0
		c0.472,0.965,1.141,1.498,1.88,1.498c0.367,0,0.716-0.133,1.035-0.386c0.16,0.317,0.311,0.642,0.451,0.974
		c-0.132,0.185-0.262,0.39-0.376,0.626c-0.632,1.293-1.59,1.293-2.222,0c-0.473-0.967-1.141-1.498-1.882-1.498
		c-0.737,0-1.407,0.53-1.88,1.498c-0.314,0.644-0.719,1.018-1.11,1.018c-0.391,0-0.797-0.372-1.111-1.018
		c-0.47-0.967-1.138-1.498-1.88-1.498l0,0c-0.738,0-1.404,0.53-1.877,1.498c-0.239,0.486-0.522,0.789-0.818,0.909
		c0.2-0.891,0.449-1.727,0.745-2.507c0.322-0.254,0.604-0.628,0.842-1.114C49.372,18.025,50.33,18.032,50.959,19.32z M49.376,17.533
		c1.095-1.587,2.373-2.564,3.589-2.635l0.234-0.007c1.613,0,3.328,0.963,4.824,2.717c0.527,0.618,0.983,1.313,1.403,2.04
		c-0.568,0.513-1.234,0.283-1.716-0.702c-0.472-0.966-1.141-1.502-1.879-1.502c-0.739,0-1.41,0.536-1.88,1.502
		c-0.317,0.646-0.721,1.019-1.113,1.019c-0.39,0-0.794-0.371-1.108-1.019c-0.47-0.966-1.141-1.502-1.882-1.502h-0.003
		C49.687,17.446,49.529,17.484,49.376,17.533z M48.737,22.407c0.635-1.298,1.593-1.289,2.222,0c0.47,0.967,1.137,1.502,1.88,1.502
		c0.744,0,1.41-0.535,1.88-1.502c0.634-1.293,1.587-1.293,2.222,0c0.472,0.967,1.141,1.502,1.88,1.502
		c0.738,0,1.407-0.535,1.879-1.5c0.164,0.452,0.297,0.924,0.429,1.397c-0.46,0.229-0.876,0.662-1.195,1.315
		c-0.634,1.294-1.587,1.294-2.222,0c-0.475-0.965-1.141-1.494-1.879-1.494c-0.739,0-1.408,0.529-1.88,1.494
		c-0.317,0.647-0.721,1.019-1.113,1.019c-0.39-0.002-0.794-0.369-1.108-1.019c-0.475-0.965-1.141-1.494-1.882-1.494h-0.003
		c-0.738,0-1.404,0.529-1.877,1.494c-0.365,0.75-0.842,1.054-1.303,0.932c0.055-0.745,0.15-1.464,0.274-2.163
		C47.647,23.852,48.283,23.336,48.737,22.407z M46.858,26.996c0.741,0,1.409-0.533,1.882-1.498c0.632-1.301,1.59-1.289,2.219,0
		c0.475,0.965,1.141,1.498,1.882,1.498c0.742,0,1.408-0.533,1.882-1.498c0.632-1.294,1.588-1.294,2.22,0
		c0.473,0.965,1.141,1.498,1.882,1.498c0.737,0,1.405-0.533,1.88-1.498c0.196-0.401,0.424-0.659,0.661-0.815
		c0.148,0.664,0.263,1.346,0.354,2.044c-0.702,0.047-1.334,0.559-1.786,1.484c-0.634,1.295-1.587,1.295-2.222,0
		c-0.475-0.965-1.141-1.5-1.879-1.5c-0.739,0-1.408,0.535-1.88,1.5c-0.317,0.646-0.721,1.019-1.113,1.019
		c-0.39,0-0.794-0.37-1.108-1.019c-0.475-0.965-1.141-1.5-1.882-1.5h-0.003c-0.738,0-1.404,0.535-1.877,1.5
		c-0.358,0.733-0.818,1.037-1.269,0.937c-0.052-0.743-0.068-1.469-0.048-2.191C46.724,26.967,46.789,26.996,46.858,26.996z
		 M46.858,30.085c0.741,0,1.411-0.535,1.882-1.502c0.632-1.298,1.59-1.287,2.219,0c0.475,0.967,1.141,1.502,1.882,1.502
		c0.742,0,1.412-0.535,1.882-1.5c0.632-1.293,1.588-1.293,2.22,0c0.47,0.965,1.141,1.5,1.882,1.5c0.737,0,1.407-0.535,1.88-1.5
		c0.314-0.647,0.714-0.971,1.11-0.971c0.066,0.723,0.104,1.454,0.105,2.205c-0.034-0.004-0.071-0.022-0.105-0.022
		c-0.741,0-1.407,0.533-1.879,1.498c-0.632,1.299-1.59,1.299-2.222,0c-0.475-0.965-1.139-1.498-1.882-1.498
		c-0.737,0-1.405,0.533-1.88,1.498c-0.314,0.647-0.719,1.023-1.111,1.023c-0.39,0-0.793-0.375-1.11-1.023
		c-0.47-0.965-1.139-1.498-1.88-1.498h-0.005c-0.738,0-1.404,0.533-1.877,1.498c-0.235,0.481-0.518,0.785-0.81,0.909
		c-0.16-0.715-0.287-1.423-0.367-2.13C46.814,30.076,46.835,30.085,46.858,30.085z M48.737,31.674c0.63-1.301,1.59-1.286,2.222,0
		c0.47,0.967,1.137,1.5,1.88,1.5c0.744,0,1.41-0.532,1.88-1.5c0.634-1.294,1.587-1.294,2.222,0c0.47,0.967,1.141,1.5,1.88,1.5
		c0.738,0,1.409-0.532,1.879-1.5c0.34-0.689,0.771-1.002,1.195-0.951c-0.022,0.717-0.073,1.444-0.15,2.182
		c-0.712,0.036-1.354,0.55-1.812,1.482c-0.634,1.295-1.587,1.295-2.222,0c-0.475-0.963-1.141-1.496-1.879-1.496
		c-0.739,0-1.408,0.533-1.88,1.496c-0.317,0.646-0.721,1.021-1.113,1.021c-0.39,0-0.794-0.372-1.108-1.021
		c-0.475-0.963-1.141-1.496-1.882-1.496h-0.003c-0.738,0-1.404,0.533-1.877,1.496c-0.039,0.076-0.08,0.132-0.116,0.2
		c-0.178-0.503-0.355-1-0.493-1.504C47.896,32.896,48.375,32.415,48.737,31.674z M57.709,52.917
		c-0.473-0.968-1.141-1.497-1.882-1.497c-0.737,0-1.407,0.529-1.88,1.497c-0.314,0.647-0.719,1.017-1.11,1.017
		c-0.391,0-0.797-0.369-1.111-1.017c-0.47-0.968-1.138-1.497-1.88-1.497l0,0c-0.342,0-0.661,0.124-0.962,0.34
		c0.104-0.526,0.244-1.067,0.454-1.612c0.118-0.311,0.193-0.579,0.296-0.871c0.466-0.137,0.951,0.164,1.321,0.926
		c0.474,0.965,1.138,1.501,1.882,1.501c0.741,0,1.412-0.533,1.879-1.499c0.632-1.293,1.59-1.293,2.222,0
		c0.471,0.963,1.139,1.499,1.883,1.499c0.296,0,0.584-0.109,0.848-0.278c-0.016,0.765-0.089,1.487-0.216,2.167
		C58.877,54.133,58.197,53.916,57.709,52.917z M59.178,54.724c-0.33,1.058-0.791,1.984-1.421,2.659
		c-0.963,1.029-2.213,1.526-3.827,1.526h-0.014c-1.707-0.002-3.235-0.814-4.204-2.229c-0.669-0.977-0.968-2.14-0.968-3.399
		c0.632-1.284,1.586-1.277,2.211,0.01c0.474,0.967,1.138,1.503,1.882,1.503c0.741,0,1.407-0.536,1.879-1.503
		c0.632-1.294,1.59-1.294,2.222,0c0.473,0.967,1.139,1.503,1.883,1.503C58.943,54.792,59.062,54.751,59.178,54.724z M57.709,49.826
		c-0.475-0.965-1.141-1.499-1.882-1.499c-0.737,0-1.405,0.534-1.88,1.499c-0.314,0.646-0.719,1.023-1.11,1.023
		c-0.391,0-0.797-0.374-1.111-1.023c-0.447-0.92-1.076-1.431-1.776-1.477c0.207-0.688,0.374-1.336,0.49-1.95
		c0.187,0.157,0.362,0.399,0.516,0.717c0.474,0.965,1.138,1.498,1.882,1.498c0.741,0,1.407-0.533,1.879-1.498
		c0.131-0.263,0.278-0.463,0.432-0.621c0.522,0.048,1.006,0.116,1.515,0.172c0.096,0.127,0.189,0.271,0.275,0.446
		c0.473,0.965,1.139,1.497,1.883,1.497c0.292,0,0.562-0.105,0.825-0.261c0.005,0.566-0.014,1.123,0.027,1.716
		c0.002,0.063-0.002,0.123,0,0.191C59.062,51.101,58.259,50.955,57.709,49.826z M51.397,46.196c0.939,0.064,1.852,0.138,2.751,0.22
		c-0.068,0.109-0.14,0.203-0.201,0.326c-0.314,0.646-0.719,1.015-1.11,1.015c-0.391,0-0.797-0.367-1.111-1.015
		C51.63,46.536,51.516,46.361,51.397,46.196z M57.736,46.79c0.627,0.072,1.284,0.139,1.891,0.219c-0.004,0.063,0.005,0.142,0,0.21
		C59.029,47.985,58.274,47.839,57.736,46.79z M48.566,36.449c-0.057-0.136-0.107-0.25-0.171-0.388
		c-0.078-0.167-0.116-0.341-0.188-0.512c0.192-0.219,0.372-0.471,0.529-0.787c0.63-1.296,1.59-1.287,2.222-0.002
		c0.47,0.967,1.137,1.502,1.88,1.502c0.744,0,1.41-0.535,1.88-1.5c0.634-1.291,1.587-1.291,2.222,0c0.47,0.965,1.141,1.5,1.88,1.5
		c0.738,0,1.409-0.535,1.879-1.5c0.27-0.549,0.598-0.85,0.936-0.932c-0.022,0.154-0.029,0.309-0.055,0.463
		c-0.178,1.135-0.393,2.202-0.603,3.268C56.956,37.021,52.779,36.647,48.566,36.449z M64.181,34.701
		c-0.178,1.119-0.384,2.188-0.584,3.24c-0.475-0.073-0.944-0.147-1.421-0.218c0.202-1.057,0.408-2.125,0.586-3.247
		c1.1-6.953-0.333-13.552-3.828-17.648c-1.729-2.021-3.764-3.138-5.734-3.138c-0.104,0-0.205,0.004-0.306,0.013
		c-1.777,0.104-3.521,1.431-4.913,3.734c-2.544,4.205-3.838,11.908-0.73,18.954c-0.529-0.022-1.059-0.045-1.58-0.062
		c-2.963-7.338-1.569-15.248,1.083-19.634c1.643-2.717,3.796-4.291,6.054-4.426c2.527-0.145,5.104,1.152,7.218,3.63
		C63.793,20.31,65.344,27.339,64.181,34.701z"/>
</g>
</svg>